<svg fill="#0e82e2" id="Capa_1" enable-background="new 0 0 512 512" height="512" viewBox="0 0 512 512" width="512"
     xmlns="http://www.w3.org/2000/svg">
    <g>
        <path d="m256 103c-74.439 0-135 60.561-135 135 0 45.091 22.781 87.329 60 112.259v11.741h60v-81.58c-17.459-6.192-30-22.865-30-42.42 0-24.814 20.187-45 45-45s45 20.186 45 45c0 19.555-12.542 36.228-30 42.42v81.58h60v-11.741c37.219-24.93 60-67.168 60-112.259 0-74.439-60.561-135-135-135z"/>
        <path d="m331 392h-150c.405 19.328-1.084 24.81 1.802 33.773 1.997 6.203 7.764 10.398 14.281 10.398h117.833c6.51 0 12.286-4.201 14.281-10.398 2.888-8.963 1.398-14.453 1.803-33.773z"/>
        <circle cx="256" cy="238" r="15"/>
        <path d="m211 466.172h90v45.828h-90z"/>
        <path d="m451 225h45v30h-45z"/>
        <path d="m16 225h45v30h-45z"/>
        <path d="m387.296 71.205h45v30h-45z" transform="matrix(.707 -.707 .707 .707 59.071 315.018)"/>
        <path d="m241 0h30v45h-30z"/>
        <path d="m87.205 63.705h30v45h-30z" transform="matrix(.707 -.707 .707 .707 -31.021 97.518)"/>
    </g>
</svg>
